<svg xmlns="http://www.w3.org/2000/svg" viewBox="0 0 320 180" role="img" aria-label="SUV">
  <defs><linearGradient id="bg" x1="0" y1="0" x2="1" y2="1"><stop stop-color="#55be61"/><stop offset="1" stop-color="#3ba94c"/></linearGradient></defs>
  <rect x="5" y="5" width="310" height="170" rx="22" fill="url(#bg)"/>
  <path fill="#fff" d="M48 113V80l21-3 19-35h102c13 0 23 4 33 13l30 27 29 8c12 4 18 12 18 25v9H48v-11Zm60-65L94 78h57V48h-43Zm52 0v30h69l-27-23c-5-5-12-7-20-7h-22Z"/>
  <path fill="#fff" d="M103 35h102l9 11H94l9-11Z"/>
  <circle cx="92" cy="121" r="27" fill="#fff"/><circle cx="92" cy="121" r="14" fill="#3ba94c"/>
  <circle cx="249" cy="121" r="27" fill="#fff"/><circle cx="249" cy="121" r="14" fill="#3ba94c"/>
</svg>
